<svg id="Calque_1" data-name="Calque 1" xmlns="http://www.w3.org/2000/svg" viewBox="0 0 188 189"><defs><style>.cls-1{fill:#fff}</style></defs><path class="cls-1" d="M.5.5h88v88H.5z"/><path d="M94 9v87H7V9h87m1-1H6v89h89V8z" transform="translate(-6 -8)"/><path class="cls-1" d="M99.5.5h88v88h-88z"/><path d="M193 9v87h-87V9h87m1-1h-89v89h89V8z" transform="translate(-6 -8)"/><path class="cls-1" d="M.5 100.5h88v88H.5z"/><path d="M94 109v87H7v-87h87m1-1H6v89h89v-89z" transform="translate(-6 -8)"/><path class="cls-1" d="M99.5 100.5h88v88h-88z"/><path d="M193 109v87h-87v-87h87m1-1h-89v89h89v-89z" transform="translate(-6 -8)"/></svg>