<svg id="Calque_1" xmlns="http://www.w3.org/2000/svg" viewBox="0 0 892 112"><style>.st0{fill:#201d1d}</style><path class="st0" d="M866.9 18.5h4.3c3.3 0 4.9 1.5 4.9 4.1 0 2.1-1.1 3.3-2.9 3.9v.1l3.9 6.6h-2l-3.7-6.3h-2.8v6.3h-1.7V18.5zm4.2 7c2.3 0 3.1-1 3.1-2.9 0-1.8-.9-2.7-3.2-2.7h-2.4v5.6h2.5z"/><path class="st0" d="M877.7 33.5H875l-.1-.2-3.6-6.2H869v6.3h-2.4V18.2h4.6c3.4 0 5.2 1.6 5.2 4.5 0 2-.9 3.4-2.8 4.1l4.1 6.7zm-2.4-.6h1.2l-3.7-6.2v-.4l.2-.1c1.8-.6 2.6-1.7 2.6-3.5 0-2.5-1.5-3.8-4.6-3.8h-3.9V33h1.1v-6.3h3.3l.1.2 3.7 6zm-4.2-7h-2.8v-6.2h2.8c2.4 0 3.5 1 3.5 3 0 2.1-1.1 3.2-3.5 3.2zm-2.1-.7h2.1c2 0 2.8-.7 2.8-2.6 0-1.4-.5-2.4-2.8-2.4H869v5z"/><path class="st0" d="M877.6 33.5H875l-.1-.1-3.6-6.2h-2.4v6.3h-2.3V18.2h4.6c3.3 0 5.2 1.6 5.2 4.4 0 2-1 3.4-2.8 4l4 6.9zm-2.3-.6h1.3l-3.7-6.3v-.4l.2-.1c1.8-.6 2.7-1.7 2.7-3.6 0-2.5-1.5-3.8-4.6-3.8h-4v14.1h1.1v-6.3h3.3l.1.1 3.6 6.3zm-4.2-7.1h-2.7v-6.2h2.7c2.4 0 3.4.9 3.4 3 0 2.2-1.1 3.2-3.4 3.2zm-2.2-.6h2.1c2 0 2.9-.8 2.9-2.6 0-1.7-.8-2.4-2.9-2.4h-2.1v5z"/><path class="st0" d="M878.2 33.8h-3.4l-.2-.3-3.5-6h-1.8v6.3h-3v-16h4.9c3.6 0 5.5 1.7 5.5 4.7 0 2-.9 3.4-2.6 4.2l4.1 7.1zm-2.7-1.2h.5l-3.4-5.8V26l.4-.1c1.7-.5 2.4-1.5 2.4-3.3 0-2.4-1.4-3.5-4.2-3.5h-3.6v13.5h.5v-6.3h3.8l.2.3 3.4 6zm-4.4-6.4H868v-6.8h3c2.5 0 3.8 1.1 3.8 3.3 0 2.3-1.2 3.5-3.7 3.5zm-1.8-1.3h1.8c1.8 0 2.5-.6 2.5-2.3 0-1.3-.4-2.1-2.5-2.1h-1.8v4.4z"/><path class="st0" d="M871.1 38.4c-6.9 0-12.5-5.6-12.5-12.5s5.6-12.5 12.5-12.5 12.5 5.6 12.5 12.5c.1 6.9-5.5 12.5-12.5 12.5zm0-23c-5.8 0-10.5 4.7-10.5 10.5s4.7 10.5 10.5 10.5 10.5-4.7 10.5-10.5-4.7-10.5-10.5-10.5z"/><path class="st0" d="M871.1 38.7c-7.1 0-12.9-5.8-12.9-12.9 0-7.1 5.8-12.9 12.9-12.9 7.1 0 12.9 5.8 12.9 12.9 0 7.2-5.8 12.9-12.9 12.9zm0-25c-6.7 0-12.2 5.5-12.2 12.2 0 6.7 5.5 12.2 12.2 12.2 6.7 0 12.2-5.5 12.2-12.2 0-6.8-5.4-12.2-12.2-12.2zm0 23c-5.9 0-10.8-4.8-10.8-10.8 0-6 4.8-10.8 10.8-10.8 6 0 10.8 4.8 10.8 10.8.1 5.9-4.8 10.8-10.8 10.8zm0-21c-5.6 0-10.1 4.6-10.1 10.1 0 5.6 4.5 10.1 10.1 10.1s10.2-4.5 10.2-10.1c0-5.5-4.6-10.1-10.2-10.1zM24.4 9.8l51.1 68.9h.2V9.8h12.4v90.6H75.7L24.6 31.6h-.2v68.9H12V9.8h12.4z"/><path class="st0" d="M89.7 102.1H74.9L26 36.2V102H10.3V8.2h14.9L74.1 74V8.2h15.7v93.9zm-13.2-3.3h9.9V11.5h-9.1v68.9h-2.5l-.7-.7-50.6-68.2h-9.9v87.3h9.1V29.9h2.5l.7.7 50.6 68.2zm55.3-43.7c0-28.4 21.4-47.2 46.1-47.2 24.6 0 46.1 18.7 46.1 47.2 0 28.4-21.4 47.2-46.1 47.2-24.7.1-46.1-18.7-46.1-47.2zm79.8 0c0-18.7-14.2-34.2-33.7-34.2s-33.7 15.5-33.7 34.2c0 18.7 14.2 34.2 33.7 34.2s33.7-15.5 33.7-34.2z"/><path class="st0" d="M177.9 104c-27.2 0-47.7-21-47.7-48.9s20.5-48.9 47.7-48.9c27.2 0 47.7 21 47.7 48.9S205.1 104 177.9 104zm0-94.5c-25.3 0-44.4 19.6-44.4 45.6s19.1 45.6 44.4 45.6c25.3 0 44.4-19.6 44.4-45.6S203.2 9.5 177.9 9.5zm0 81.5c-19.8 0-35.3-15.7-35.3-35.8 0-20.1 15.5-35.8 35.3-35.8 19.8 0 35.3 15.7 35.3 35.8 0 20-15.5 35.8-35.3 35.8zm0-68.4c-18 0-32 14.3-32 32.5s14.1 32.5 32 32.5c18 0 32-14.3 32-32.5s-14.1-32.5-32-32.5zM275.8 37h-.2v63.4h-12.4V9.8h12.4l29.3 56.3 29.3-56.3h12.4v90.6h-12.4V37h-.2l-29.1 55.7L275.8 37z"/><path class="st0" d="M348.3 102.1h-15.7V43.3l-27.7 53-27.7-53v58.8h-15.7V8.2h15l28.3 54.4 28.3-54.4h15v93.9zm-12.4-3.3h9.1V11.5h-9.7L305 69.7l-30.3-58.2H265v87.3h9.1V35.3h2.6l.7.9L305 89.1l28-53.8h2.6l.2 1.6v61.9zm143.6 1.6h-14l-12.3-29.8h-38.4l-12.7 29.8h-13.5l38.8-90.6h13.8l38.3 90.6zM434.2 26l-13.5 31.5h27L434.2 26z"/><path class="st0" d="M482 102.1h-17.6l-12.3-29.8H416l-12.7 29.8h-17.1l40.3-93.9h15.9l39.6 93.9zm-15.3-3.3h10.4l-36.9-87.3h-11.6l-37.4 87.3h9.9L413.8 69h40.6l12.3 29.8zm-16.5-39.6h-32l16-37.4 16 37.4zm-27.1-3.3h22l-11-25.7-11 25.7zM559.9 9.8c30.1 0 42.2 24.3 42.2 44.8 0 25.4-17.6 45.8-42.2 45.8h-39.5V9.8h39.5zm-27.1 13.1v64.5H560c21.2 0 29.8-19.1 29.8-32.6 0-19.3-12.5-31.9-29.8-31.9h-27.2z"/><path class="st0" d="M559.9 102.1h-41.2V8.2h41.2c30.1 0 43.8 24.1 43.8 46.5 0 27-18.8 47.4-43.8 47.4zM522 98.8h37.9c23.1 0 40.5-19 40.5-44.1 0-29.8-20.3-43.2-40.5-43.2H522v87.3zm37.9-9.8h-28.8V21.2h28.8c18.5 0 31.4 13.8 31.4 33.5.1 13.3-8.5 34.3-31.4 34.3zm-25.5-3.3h25.5c20.5 0 28.1-19 28.1-31 0-18.1-11.3-30.2-28.1-30.2h-25.5v61.2zm181.4-74.4v13h-58v23.8H687v13h-29.2v27.7H718v13h-72.5V11.3h70.3z"/><path class="st0" d="M719.6 103.5h-75.8V9.6h73.6V26h-58v20.5h29.2v16.3h-29.2v24.4h60.2v16.3zm-72.5-3.3h69.2v-9.8h-60.2v-31h29.2v-9.8h-29.2V22.7h58v-9.8H647v87.3zm120-25c5.7 4.1 14.1 14.1 34.7 14.1 11.6 0 27.4-4.3 27.4-15.5 0-14.9-16.2-14.9-26.9-14.9h-12.8c-11.7 0-25.4-6.8-25.4-23.2 0-19.2 20.6-27.9 36.4-27.9 19.4 0 31.7 9.7 35.2 12.3l-7 10.5c-7.3-4.6-13.4-9.8-27.8-9.8-10.8 0-24.4 4.2-24.4 14.9 0 7 4.8 10.4 14.7 10.4h11.3c20.2 0 39.2 5.3 39.2 27.8 0 19-19.1 28.4-40.6 28.4-25.9 0-37.4-12.9-42.6-18.4l8.6-8.7z"/><path class="st0" d="M801.1 104c-25.6 0-37.5-12.3-43.2-18.2l-1.7-1.8L767 73l1.1.8c.9.7 1.9 1.5 3 2.4 5.6 4.6 13.9 11.4 30.7 11.4 10 0 25.7-3.8 25.7-13.8 0-12.2-12-13.2-25.3-13.2h-12.8c-13 0-27.1-7.8-27.1-24.8 0-19.2 19.6-29.6 38.1-29.6 13.1 0 25.3 4.2 36.1 12.6l1.2.9-.8 1.3-7.7 12-1.4-.9c-.9-.5-1.7-1.1-2.6-1.7-6.2-4-12.1-7.9-24.4-7.9-9.1 0-22.8 3.5-22.8 13.2 0 4.1 1.5 8.7 13 8.7h11.3c27.1 0 40.8 9.9 40.8 29.4.2 20.9-21 30.2-42 30.2zm-40.4-20c5.6 5.8 16.8 16.7 40.3 16.7 19.4 0 38.9-8.3 38.9-26.7 0-17.6-12.3-26.1-37.5-26.1h-11.3c-10.8 0-16.3-4-16.3-12 0-11.3 13.5-16.5 26.1-16.5 13.2 0 19.8 4.3 26.2 8.4.4.3.8.5 1.2.8l5.2-7.9c-10-7.3-21-11.1-32.9-11.1-13.5 0-34.8 7.1-34.8 26.3 0 14.8 12.3 21.6 23.8 21.6h12.8c10.7 0 28.6 0 28.6 16.5 0 12.6-17.4 17.1-29 17.1-18 0-26.9-7.3-32.8-12.2-.6-.5-1.2-1-1.7-1.4l-6.8 6.5z"/></svg>