<svg id="Calque_1" data-name="Calque 1" xmlns="http://www.w3.org/2000/svg" viewBox="0 0 188 189"><defs><style>.cls-1{fill:#fff;}</style></defs><title>carre</title><rect class="cls-1" x="0.5" y="0.5" width="88" height="88"/><path d="M94,9V96H7V9H94m1-1H6V97H95V8Z" transform="translate(-6 -8)"/><rect class="cls-1" x="99.5" y="0.5" width="88" height="88"/><path d="M193,9V96H106V9h87m1-1H105V97h89V8Z" transform="translate(-6 -8)"/><rect class="cls-1" x="0.5" y="100.5" width="88" height="88"/><path d="M94,109v87H7V109H94m1-1H6v89H95V108Z" transform="translate(-6 -8)"/><rect class="cls-1" x="99.5" y="100.5" width="88" height="88"/><path d="M193,109v87H106V109h87m1-1H105v89h89V108Z" transform="translate(-6 -8)"/></svg>