<?xml version="1.0" encoding="utf-8"?>
<!-- Generator: Adobe Illustrator 22.1.0, SVG Export Plug-In . SVG Version: 6.00 Build 0)  -->
<svg version="1.1" id="Calque_1" xmlns="http://www.w3.org/2000/svg" xmlns:xlink="http://www.w3.org/1999/xlink" x="0px" y="0px"
	 viewBox="0 0 892 112" style="enable-background:new 0 0 892 112;" xml:space="preserve">
<style type="text/css">
	.st0{fill:#201D1D;}
</style>
<g>
	<g>
		<g>
			<g>
				<g>
					<path class="st0" d="M866.9,18.5h4.3c3.3,0,4.9,1.5,4.9,4.1c0,2.1-1.1,3.3-2.9,3.9v0.1l3.9,6.6h-2l-3.7-6.3h-2.8v6.3h-1.7V18.5
						z M871.1,25.5c2.3,0,3.1-1,3.1-2.9c0-1.8-0.9-2.7-3.2-2.7h-2.4v5.6H871.1z"/>
				</g>
				<g>
					<path class="st0" d="M877.7,33.5h-2.7l-0.1-0.2l-3.6-6.2H869v6.3h-2.4V18.2h4.6c3.4,0,5.2,1.6,5.2,4.5c0,2-0.9,3.4-2.8,4.1
						L877.7,33.5z M875.3,32.9h1.2l-3.7-6.2v-0.4l0.2-0.1c1.8-0.6,2.6-1.7,2.6-3.5c0-2.5-1.5-3.8-4.6-3.8h-3.9v14.1h1.1v-6.3h3.3
						l0.1,0.2L875.3,32.9z M871.1,25.9h-2.8v-6.2h2.8c2.4,0,3.5,1,3.5,3C874.6,24.8,873.5,25.9,871.1,25.9z M869,25.2h2.1
						c2,0,2.8-0.7,2.8-2.6c0-1.4-0.5-2.4-2.8-2.4H869V25.2z"/>
				</g>
			</g>
			<g>
				<g>
					<path class="st0" d="M877.6,33.5H875l-0.1-0.1l-3.6-6.2h-2.4v6.3h-2.3V18.2h4.6c3.3,0,5.2,1.6,5.2,4.4c0,2-1,3.4-2.8,4
						L877.6,33.5z M875.3,32.9h1.3l-3.7-6.3v-0.4l0.2-0.1c1.8-0.6,2.7-1.7,2.7-3.6c0-2.5-1.5-3.8-4.6-3.8h-4v14.1h1.1v-6.3h3.3
						l0.1,0.1L875.3,32.9z M871.1,25.8h-2.7v-6.2h2.7c2.4,0,3.4,0.9,3.4,3C874.5,24.8,873.4,25.8,871.1,25.8z M868.9,25.2h2.1
						c2,0,2.9-0.8,2.9-2.6c0-1.7-0.8-2.4-2.9-2.4h-2.1V25.2z"/>
				</g>
				<g>
					<path class="st0" d="M878.2,33.8h-3.4l-0.2-0.3l-3.5-6h-1.8v6.3h-3v-16h4.9c3.6,0,5.5,1.7,5.5,4.7c0,2-0.9,3.4-2.6,4.2
						L878.2,33.8z M875.5,32.6h0.5l-3.4-5.8V26l0.4-0.1c1.7-0.5,2.4-1.5,2.4-3.3c0-2.4-1.4-3.5-4.2-3.5h-3.6v13.5h0.5v-6.3h3.8
						l0.2,0.3L875.5,32.6z M871.1,26.2H868v-6.8h3c2.5,0,3.8,1.1,3.8,3.3C874.8,25,873.6,26.2,871.1,26.2z M869.3,24.9h1.8
						c1.8,0,2.5-0.6,2.5-2.3c0-1.3-0.4-2.1-2.5-2.1h-1.8V24.9z"/>
				</g>
			</g>
		</g>
		<g>
			<g>
				<g>
					<path class="st0" d="M871.1,38.4c-6.9,0-12.5-5.6-12.5-12.5c0-6.9,5.6-12.5,12.5-12.5c6.9,0,12.5,5.6,12.5,12.5
						C883.7,32.8,878.1,38.4,871.1,38.4z M871.1,15.4c-5.8,0-10.5,4.7-10.5,10.5c0,5.8,4.7,10.5,10.5,10.5c5.8,0,10.5-4.7,10.5-10.5
						C881.6,20.1,876.9,15.4,871.1,15.4z"/>
				</g>
				<g>
					<path class="st0" d="M871.1,38.7c-7.1,0-12.9-5.8-12.9-12.9c0-7.1,5.8-12.9,12.9-12.9c7.1,0,12.9,5.8,12.9,12.9
						C884,33,878.2,38.7,871.1,38.7z M871.1,13.7c-6.7,0-12.2,5.5-12.2,12.2c0,6.7,5.5,12.2,12.2,12.2c6.7,0,12.2-5.5,12.2-12.2
						C883.3,19.1,877.9,13.7,871.1,13.7z M871.1,36.7c-5.9,0-10.8-4.8-10.8-10.8c0-6,4.8-10.8,10.8-10.8c6,0,10.8,4.8,10.8,10.8
						C882,31.8,877.1,36.7,871.1,36.7z M871.1,15.7c-5.6,0-10.1,4.6-10.1,10.1c0,5.6,4.5,10.1,10.1,10.1c5.6,0,10.2-4.5,10.2-10.1
						C881.3,20.3,876.7,15.7,871.1,15.7z"/>
				</g>
			</g>
		</g>
	</g>
	<g>
		<g>
			<path class="st0" d="M24.4,9.8l51.1,68.9h0.2V9.8h12.4v90.6H75.7L24.6,31.6h-0.2v68.9H12V9.8H24.4z"/>
			<path class="st0" d="M89.7,102.1H74.9L26,36.2v65.8H10.3V8.2h14.9L74.1,74V8.2h15.7V102.1z M76.5,98.8h9.9V11.5h-9.1v68.9h-2.5
				l-0.7-0.7L23.5,11.5h-9.9v87.3h9.1V29.9h2.5l0.7,0.7L76.5,98.8z"/>
		</g>
	</g>
	<g>
		<g>
			<path class="st0" d="M131.8,55.1c0-28.4,21.4-47.2,46.1-47.2c24.6,0,46.1,18.7,46.1,47.2c0,28.4-21.4,47.2-46.1,47.2
				C153.2,102.4,131.8,83.6,131.8,55.1z M211.6,55.1c0-18.7-14.2-34.2-33.7-34.2s-33.7,15.5-33.7,34.2c0,18.7,14.2,34.2,33.7,34.2
				S211.6,73.8,211.6,55.1z"/>
			<path class="st0" d="M177.9,104c-27.2,0-47.7-21-47.7-48.9c0-27.9,20.5-48.9,47.7-48.9c27.2,0,47.7,21,47.7,48.9
				C225.6,83,205.1,104,177.9,104z M177.9,9.5c-25.3,0-44.4,19.6-44.4,45.6c0,26,19.1,45.6,44.4,45.6c25.3,0,44.4-19.6,44.4-45.6
				C222.3,29.1,203.2,9.5,177.9,9.5z M177.9,91c-19.8,0-35.3-15.7-35.3-35.8c0-20.1,15.5-35.8,35.3-35.8c19.8,0,35.3,15.7,35.3,35.8
				C213.2,75.2,197.7,91,177.9,91z M177.9,22.6c-18,0-32,14.3-32,32.5c0,18.2,14.1,32.5,32,32.5c18,0,32-14.3,32-32.5
				C209.9,36.9,195.8,22.6,177.9,22.6z"/>
		</g>
	</g>
	<g>
		<g>
			<path class="st0" d="M275.8,37h-0.2v63.4h-12.4V9.8h12.4l29.3,56.3l29.3-56.3h12.4v90.6h-12.4V37H334l-29.1,55.7L275.8,37z"/>
			<path class="st0" d="M348.3,102.1h-15.7V43.3l-27.7,53l-27.7-53v58.8h-15.7V8.2h15l28.3,54.4l28.3-54.4h15V102.1z M335.9,98.8
				h9.1V11.5h-9.7l-30.3,58.2l-30.3-58.2h-9.7v87.3h9.1V35.3h2.6l0.7,0.9l27.6,52.9L333,35.3h2.6l0.2,1.6V98.8z"/>
		</g>
	</g>
	<g>
		<g>
			<path class="st0" d="M479.5,100.4h-14l-12.3-29.8h-38.4l-12.7,29.8h-13.5l38.8-90.6h13.8L479.5,100.4z M434.2,26l-13.5,31.5h27
				L434.2,26z"/>
			<path class="st0" d="M482,102.1h-17.6l-12.3-29.8H416l-12.7,29.8h-17.1l40.3-93.9h15.9L482,102.1z M466.7,98.8h10.4l-36.9-87.3
				h-11.6l-37.4,87.3h9.9l12.7-29.8h40.6L466.7,98.8z M450.2,59.2h-32l16-37.4L450.2,59.2z M423.1,55.9h22l-11-25.7L423.1,55.9z"/>
		</g>
	</g>
	<g>
		<g>
			<path class="st0" d="M559.9,9.8c30.1,0,42.2,24.3,42.2,44.8c0,25.4-17.6,45.8-42.2,45.8h-39.5V9.8H559.9z M532.8,22.9v64.5h27.2
				c21.2,0,29.8-19.1,29.8-32.6c0-19.3-12.5-31.9-29.8-31.9H532.8z"/>
			<path class="st0" d="M559.9,102.1h-41.2V8.2h41.2c30.1,0,43.8,24.1,43.8,46.5C603.7,81.7,584.9,102.1,559.9,102.1z M522,98.8
				h37.9c23.1,0,40.5-19,40.5-44.1c0-29.8-20.3-43.2-40.5-43.2H522V98.8z M559.9,89h-28.8V21.2h28.8c18.5,0,31.4,13.8,31.4,33.5
				C591.4,68,582.8,89,559.9,89z M534.4,85.7h25.5c20.5,0,28.1-19,28.1-31c0-18.1-11.3-30.2-28.1-30.2h-25.5V85.7z"/>
		</g>
	</g>
	<g>
		<g>
			<path class="st0" d="M715.8,11.3v13h-58v23.8h29.2v13h-29.2v27.7H718v13h-72.5V11.3H715.8z"/>
			<path class="st0" d="M719.6,103.5h-75.8V9.6h73.6V26h-58v20.5h29.2v16.3h-29.2v24.4h60.2V103.5z M647.1,100.2h69.2v-9.8h-60.2
				v-31h29.2v-9.8h-29.2V22.7h58v-9.8h-67.1V100.2z"/>
		</g>
	</g>
	<g>
		<g>
			<path class="st0" d="M767.1,75.2c5.7,4.1,14.1,14.1,34.7,14.1c11.6,0,27.4-4.3,27.4-15.5c0-14.9-16.2-14.9-26.9-14.9h-12.8
				c-11.7,0-25.4-6.8-25.4-23.2c0-19.2,20.6-27.9,36.4-27.9c19.4,0,31.7,9.7,35.2,12.3l-7,10.5c-7.3-4.6-13.4-9.8-27.8-9.8
				c-10.8,0-24.4,4.2-24.4,14.9c0,7,4.8,10.4,14.7,10.4h11.3c20.2,0,39.2,5.3,39.2,27.8c0,19-19.1,28.4-40.6,28.4
				c-25.9,0-37.4-12.9-42.6-18.4L767.1,75.2z"/>
			<path class="st0" d="M801.1,104c-25.6,0-37.5-12.3-43.2-18.2l-1.7-1.8L767,73l1.1,0.8c0.9,0.7,1.9,1.5,3,2.4
				c5.6,4.6,13.9,11.4,30.7,11.4c10,0,25.7-3.8,25.7-13.8c0-12.2-12-13.2-25.3-13.2h-12.8c-13,0-27.1-7.8-27.1-24.8
				c0-19.2,19.6-29.6,38.1-29.6c13.1,0,25.3,4.2,36.1,12.6l1.2,0.9l-0.8,1.3L829.2,33l-1.4-0.9c-0.9-0.5-1.7-1.1-2.6-1.7
				c-6.2-4-12.1-7.9-24.4-7.9c-9.1,0-22.8,3.5-22.8,13.2c0,4.1,1.5,8.7,13,8.7h11.3c27.1,0,40.8,9.9,40.8,29.4
				C843.3,94.7,822.1,104,801.1,104z M760.7,84c5.6,5.8,16.8,16.7,40.3,16.7c19.4,0,38.9-8.3,38.9-26.7c0-17.6-12.3-26.1-37.5-26.1
				h-11.3c-10.8,0-16.3-4-16.3-12c0-11.3,13.5-16.5,26.1-16.5c13.2,0,19.8,4.3,26.2,8.4c0.4,0.3,0.8,0.5,1.2,0.8l5.2-7.9
				c-10-7.3-21-11.1-32.9-11.1c-13.5,0-34.8,7.1-34.8,26.3c0,14.8,12.3,21.6,23.8,21.6h12.8c10.7,0,28.6,0,28.6,16.5
				c0,12.6-17.4,17.1-29,17.1c-18,0-26.9-7.3-32.8-12.2c-0.6-0.5-1.2-1-1.7-1.4L760.7,84z"/>
		</g>
	</g>
</g>
</svg>
